<svg xmlns="http://www.w3.org/2000/svg"  viewBox="0 0 512 512" width="48px" height="48px"><path fill="#D4D2B1" d="M504.1,256c0,137-111.1,248.1-248.1,248.1S7.9,393,7.9,256C7.9,119,119,7.9,256,7.9S504.1,119,504.1,256"/><path fill="#EED37D" d="M216.9,350.8c125.2,92.9,199.8-46.5,199.8-46.5c-60.4,44.6-94.4,15.8-94.4,15.8L216.9,350.8z"/><path fill="#EED37D" d="M216.9,350.8c125.2,92.9,199.8-46.5,199.8-46.5c-60.4,44.6-94.4,15.8-94.4,15.8L216.9,350.8z"/><path fill="#EEB056" d="M375.9 353L362.2 329.1 363.8 328.1 377.5 352.1zM354.7 367.7L345.1 328.8 346.9 328.4 356.5 367.3z"/><path fill="#EEB056" d="M326.1 324.7H328V378.9H326.1z" transform="rotate(8.726 327.076 351.949)"/><path fill="#32B34B" d="M322.4,320.1l-47.1,13.7c24.9,10.7,87.6,29.4,139-25.3c1.6-2.7,2.5-4.2,2.5-4.2C356.3,348.9,322.4,320.1,322.4,320.1"/><path fill="#32B34B" d="M351.5,257.3c0-0.1,0.1-0.2,0.1-0.3c-12-41.3-49.5-63.8-93.9-63.8c-44.5,0-81.9,22.6-93.9,63.8c-2.6,9-3.9,18.8-3.9,29.4c0,41.1,25.4,74.4,97.9,74.5c72.5,2.1,97.7-33.4,97.7-74.5C355.6,275.8,354,266.1,351.5,257.3"/><path fill="#32B34B" d="M198.3 315.4H239.10000000000002V371.7H198.3zM276.3 315.4H317.1V371.7H276.3z"/><path fill="#32B34B" d="M221.4 389.9h32.8c0-19.6-15.9-35.5-35.5-35.5-19.6 0-35.5 15.9-35.5 35.5h32H221.4zM299.4 389.9h32.8c0-19.6-15.9-35.5-35.5-35.5-19.6 0-35.5 15.9-35.5 35.5h31.9H299.4z"/><path fill="#EED37D" d="M342.3,247.4c0,46-37.8,83.2-84.5,83.2c-46.7,0-84.5-37.3-84.5-83.2s37.8-83.2,84.5-83.2C304.4,164.2,342.3,201.4,342.3,247.4"/><path fill="#EEB056" d="M308.1,294c0,0-0.3,0.3-0.9,0.8c-0.6,0.5-1.5,1.3-2.6,2.2c-0.6,0.5-1.2,1-1.9,1.5c-0.7,0.5-1.6,1-2.4,1.6c-0.9,0.6-1.8,1.2-2.8,1.8c-1,0.6-2.1,1.1-3.2,1.7c-0.6,0.3-1.1,0.6-1.7,0.9c-0.3,0.2-0.6,0.3-0.9,0.5c-0.3,0.1-0.6,0.3-0.9,0.4c-1.3,0.5-2.6,1.1-4,1.7c-1.3,0.6-2.8,1-4.3,1.5c-0.7,0.2-1.5,0.5-2.2,0.7c-0.8,0.2-1.5,0.5-2.3,0.6c-1.6,0.4-3.2,0.7-4.8,1.1c-1.6,0.4-3.3,0.5-5,0.8c-3.4,0.6-6.8,0.5-10.2,0.7c-1.7-0.1-3.4-0.2-5.1-0.2c-0.8-0.1-1.6,0-2.5-0.2c-0.9-0.1-1.7-0.2-2.6-0.3c-1.7-0.2-3.4-0.4-5-0.8c-1.6-0.4-3.2-0.7-4.8-1.1c-0.8-0.2-1.6-0.4-2.3-0.6c-0.8-0.2-1.5-0.5-2.2-0.7c-1.5-0.5-2.9-0.9-4.3-1.5c-1.4-0.6-2.7-1.1-4-1.7c-0.3-0.1-0.6-0.3-0.9-0.4c-0.3-0.2-0.6-0.3-0.9-0.5c-0.6-0.3-1.2-0.6-1.7-0.9c-1.1-0.6-2.2-1.2-3.2-1.7c-1-0.6-1.9-1.2-2.8-1.8c-0.9-0.6-1.7-1.1-2.4-1.6c-0.7-0.5-1.3-1.1-1.9-1.5c-1.2-0.9-2-1.7-2.7-2.2l-0.9-0.8l0.2-0.2c0,0,1.4,0.9,3.8,2.6c0.6,0.4,1.3,0.9,2,1.3c0.8,0.4,1.6,0.9,2.5,1.4c0.9,0.5,1.8,1,2.8,1.6c1,0.5,2.1,1,3.3,1.5c0.6,0.3,1.2,0.5,1.7,0.8c0.3,0.1,0.6,0.3,0.9,0.4c0.3,0.1,0.6,0.2,0.9,0.4c1.3,0.5,2.6,1,3.9,1.5c1.3,0.5,2.8,0.9,4.2,1.3c0.7,0.2,1.5,0.4,2.2,0.6c0.7,0.2,1.5,0.4,2.3,0.6c1.5,0.3,3.1,0.6,4.7,0.9c0.8,0.2,1.6,0.3,2.4,0.4c0.8,0.1,1.6,0.2,2.4,0.3c0.8,0.1,1.6,0.2,2.5,0.3c0.8,0.1,1.6,0.1,2.5,0.1c1.7,0.1,3.3,0.1,5,0.2c3.3-0.2,6.7-0.1,9.9-0.6c0.8-0.1,1.6-0.2,2.4-0.3l1.2-0.1c0.4-0.1,0.8-0.2,1.2-0.2c1.6-0.3,3.1-0.6,4.7-0.9c0.8-0.1,1.5-0.4,2.3-0.6c0.7-0.2,1.5-0.4,2.2-0.6c1.5-0.4,2.9-0.8,4.2-1.3c1.3-0.5,2.7-1,3.9-1.5c0.3-0.1,0.6-0.2,0.9-0.4c0.3-0.1,0.6-0.3,0.9-0.4c0.6-0.3,1.2-0.5,1.7-0.8c1.1-0.5,2.2-1,3.3-1.5c1-0.6,1.9-1.1,2.8-1.6c0.9-0.5,1.7-1,2.5-1.4c0.8-0.4,1.4-0.9,2-1.3c2.4-1.6,3.8-2.6,3.8-2.6L308.1,294z"/><path fill="#EEB056" d="M308.1,283.8c0,0-0.3,0.3-0.9,0.8c-0.6,0.5-1.5,1.3-2.6,2.2c-0.6,0.4-1.2,1-1.9,1.5c-0.7,0.5-1.6,1-2.4,1.6c-0.9,0.6-1.8,1.2-2.8,1.8c-1,0.6-2.1,1.1-3.2,1.7c-0.6,0.3-1.1,0.6-1.7,0.9c-0.3,0.2-0.6,0.3-0.9,0.5c-0.3,0.1-0.6,0.3-0.9,0.4c-1.3,0.5-2.6,1.1-4,1.7c-1.3,0.6-2.8,1-4.3,1.5c-0.7,0.2-1.5,0.5-2.2,0.7c-0.8,0.2-1.5,0.5-2.3,0.6c-1.6,0.4-3.2,0.7-4.8,1.1c-1.6,0.4-3.3,0.5-5,0.8c-3.4,0.6-6.8,0.5-10.2,0.7c-1.7-0.1-3.4-0.2-5.1-0.2c-0.8-0.1-1.6,0-2.5-0.2c-0.9-0.1-1.7-0.2-2.6-0.3c-1.7-0.2-3.4-0.4-5-0.8c-1.6-0.4-3.2-0.7-4.8-1.1c-0.8-0.2-1.6-0.4-2.3-0.6c-0.8-0.2-1.5-0.5-2.2-0.7c-1.5-0.5-2.9-0.9-4.3-1.5c-1.4-0.6-2.7-1.1-4-1.7c-0.3-0.1-0.6-0.3-0.9-0.4c-0.3-0.2-0.6-0.3-0.9-0.5c-0.6-0.3-1.2-0.6-1.7-0.9c-1.1-0.6-2.2-1.2-3.2-1.7c-1-0.6-1.9-1.2-2.8-1.8c-0.9-0.6-1.7-1.1-2.4-1.6c-0.7-0.5-1.3-1.1-1.9-1.5c-1.2-0.9-2-1.7-2.7-2.2l-0.9-0.8l0.2-0.2c0,0,1.4,0.9,3.8,2.6c0.6,0.4,1.3,0.9,2,1.3c0.8,0.4,1.6,0.9,2.5,1.4c0.9,0.5,1.8,1,2.8,1.6c1,0.5,2.1,1,3.3,1.5c0.6,0.3,1.2,0.5,1.7,0.8c0.3,0.1,0.6,0.3,0.9,0.4c0.3,0.1,0.6,0.2,0.9,0.3c1.3,0.5,2.6,1,3.9,1.5c1.3,0.6,2.8,0.9,4.2,1.3c0.7,0.2,1.5,0.4,2.2,0.6c0.7,0.2,1.5,0.4,2.3,0.6c1.5,0.3,3.1,0.6,4.7,0.9c0.8,0.2,1.6,0.3,2.4,0.4c0.8,0.1,1.6,0.2,2.4,0.3c0.8,0.1,1.6,0.2,2.5,0.3c0.8,0.1,1.6,0.1,2.5,0.1c1.7,0.1,3.3,0.1,5,0.2c3.3-0.2,6.7-0.1,9.9-0.6c0.8-0.1,1.6-0.2,2.4-0.3l1.2-0.1c0.4-0.1,0.8-0.2,1.2-0.2c1.6-0.3,3.1-0.6,4.7-0.9c0.8-0.1,1.5-0.4,2.3-0.6c0.7-0.2,1.5-0.4,2.2-0.6c1.5-0.4,2.9-0.8,4.2-1.3c1.3-0.5,2.7-1,3.9-1.5c0.3-0.1,0.6-0.2,0.9-0.3c0.3-0.1,0.6-0.3,0.9-0.4c0.6-0.3,1.2-0.5,1.7-0.8c1.1-0.5,2.2-1,3.3-1.5c1-0.6,1.9-1.1,2.8-1.6c0.9-0.5,1.7-1,2.5-1.4c0.8-0.4,1.4-0.9,2-1.3c2.4-1.6,3.8-2.6,3.8-2.6L308.1,283.8z"/><path fill="#EEB056" d="M308.1,273.6c0,0-0.3,0.3-0.9,0.8c-0.6,0.5-1.5,1.3-2.6,2.2c-0.6,0.5-1.2,1-1.9,1.5c-0.7,0.5-1.6,1-2.4,1.6c-0.9,0.6-1.8,1.2-2.8,1.8c-1,0.6-2.1,1.1-3.2,1.7c-0.6,0.3-1.1,0.6-1.7,0.9c-0.3,0.2-0.6,0.3-0.9,0.5c-0.3,0.1-0.6,0.3-0.9,0.4c-1.3,0.5-2.6,1.1-4,1.7c-1.3,0.6-2.8,1-4.3,1.5c-0.7,0.2-1.5,0.5-2.2,0.7c-0.8,0.2-1.5,0.5-2.3,0.7c-1.6,0.4-3.2,0.7-4.8,1.1c-1.6,0.4-3.3,0.5-5,0.8c-3.4,0.6-6.8,0.5-10.2,0.7c-1.7-0.1-3.4-0.2-5.1-0.2c-0.8-0.1-1.6,0-2.5-0.2c-0.9-0.1-1.7-0.2-2.6-0.3c-1.7-0.2-3.4-0.4-5-0.8c-1.6-0.4-3.2-0.7-4.8-1.1c-0.8-0.2-1.6-0.4-2.3-0.6c-0.8-0.2-1.5-0.5-2.2-0.7c-1.5-0.5-2.9-0.9-4.3-1.5c-1.4-0.6-2.7-1.1-4-1.7c-0.3-0.1-0.6-0.3-0.9-0.4c-0.3-0.2-0.6-0.3-0.9-0.5c-0.6-0.3-1.2-0.6-1.7-0.9c-1.1-0.6-2.2-1.2-3.2-1.7c-1-0.6-1.9-1.2-2.8-1.8c-0.9-0.6-1.7-1.1-2.4-1.6c-0.7-0.5-1.3-1.1-1.9-1.5c-1.2-0.9-2-1.7-2.7-2.2l-0.9-0.8l0.2-0.2c0,0,1.4,0.9,3.8,2.5c0.6,0.4,1.3,0.9,2,1.3c0.8,0.4,1.6,0.9,2.5,1.4c0.9,0.5,1.8,1,2.8,1.6c1,0.5,2.1,1,3.3,1.5c0.6,0.3,1.2,0.5,1.7,0.8c0.3,0.1,0.6,0.3,0.9,0.4c0.3,0.1,0.6,0.2,0.9,0.3c1.3,0.5,2.6,1,3.9,1.5c1.3,0.6,2.8,0.9,4.2,1.3c0.7,0.2,1.5,0.4,2.2,0.6c0.7,0.2,1.5,0.4,2.3,0.6c1.5,0.3,3.1,0.6,4.7,0.9c0.8,0.2,1.6,0.3,2.4,0.4c0.8,0.1,1.6,0.2,2.4,0.3c0.8,0.1,1.6,0.2,2.5,0.3c0.8,0.1,1.6,0.1,2.5,0.1c1.7,0.1,3.3,0.1,5,0.2c3.3-0.2,6.7-0.1,9.9-0.6c0.8-0.1,1.6-0.2,2.4-0.3l1.2-0.1c0.4-0.1,0.8-0.2,1.2-0.2c1.6-0.3,3.1-0.6,4.7-0.9c0.8-0.1,1.5-0.4,2.3-0.6c0.7-0.2,1.5-0.4,2.2-0.6c1.5-0.4,2.9-0.8,4.2-1.3c1.3-0.5,2.7-1,3.9-1.5c0.3-0.1,0.6-0.2,0.9-0.4c0.3-0.1,0.6-0.3,0.9-0.4c0.6-0.3,1.2-0.5,1.7-0.8c1.1-0.5,2.2-1,3.3-1.5c1-0.6,1.9-1.1,2.8-1.6c0.9-0.5,1.7-1,2.5-1.4c0.8-0.4,1.4-0.9,2-1.3c2.4-1.6,3.8-2.6,3.8-2.6L308.1,273.6z"/><path fill="#FBE28A" d="M258.1,225.3l-85.5-2.7c0,0,15.4,54.3,85.5,54.3c69.7,0,85.5-54.3,85.5-54.3L258.1,225.3z"/><path fill="#32B34B" d="M343.5,220.8c-0.8-13.6-5.5-21.6-10.1-26.3c6.2-6.4,10.1-15.1,10.1-24.7c0-19.6-15.9-35.5-35.5-35.5c-17.6,0-32.2,12.9-35,29.7c-8.7-0.4-15,0-15,0s-6.3-0.5-15,0c-2.8-16.8-17.4-29.7-35-29.7c-19.6,0-35.5,15.9-35.5,35.5c0,9.6,3.8,18.3,10,24.7c-4.6,4.7-9.3,12.7-10.1,26.3c0,0.6,0,1.2,0,1.8c0,0,23.5-1,39.3,21.8c0,0,22.1,14.8,46.3,12.5c24.2,2.3,46.2-12.5,46.2-12.5c15.8-22.8,39.3-21.8,39.3-21.8C343.5,222,343.6,221.4,343.5,220.8"/><path fill="#1D1815" d="M248 229.7c0 5.5-2.4 9.9-5.3 9.9s-5.3-4.4-5.3-9.9c0-5.5 2.4-9.9 5.3-9.9S248 224.2 248 229.7M278.7 229.7c0 5.5-2.4 9.9-5.3 9.9-2.9 0-5.3-4.4-5.3-9.9 0-5.5 2.4-9.9 5.3-9.9C276.3 219.8 278.7 224.2 278.7 229.7"/><path fill="#FFF" d="M231.7,168c0,13.5-11,24.5-24.5,24.5c-13.5,0-24.5-11-24.5-24.5c0-13.5,11-24.5,24.5-24.5C220.7,143.6,231.7,154.5,231.7,168"/><path fill="#1D1815" d="M218.9,168c0,6.5-5.2,11.7-11.7,11.7c-6.5,0-11.7-5.2-11.7-11.7c0-6.5,5.2-11.7,11.7-11.7C213.7,156.3,218.9,161.6,218.9,168"/><path fill="#FFF" d="M332,168c0,13.5-11,24.5-24.5,24.5c-13.5,0-24.5-11-24.5-24.5c0-13.5,11-24.5,24.5-24.5C321.1,143.6,332,154.5,332,168"/><path fill="#1D1815" d="M319.3,168c0,6.5-5.2,11.7-11.7,11.7c-6.5,0-11.7-5.2-11.7-11.7c0-6.5,5.2-11.7,11.7-11.7C314,156.3,319.3,161.6,319.3,168"/></svg>