<svg xmlns="http://www.w3.org/2000/svg" xmlns:xlink="http://www.w3.org/1999/xlink" viewBox="0 0 512 512" width="48px" height="48px"><path fill="#D4D2B1" d="M504.1,256c0,137-111.1,248.1-248.1,248.1C119,504.1,7.9,393,7.9,256S119,7.9,256,7.9C393,7.9,504.1,119,504.1,256"/><defs><path id="ueJpym6di7t12dzdhjfIRa" d="M183.6 177.6H328.5V307.7H183.6z"/></defs><clipPath id="ueJpym6di7t12dzdhjfIRb"><use overflow="visible" xlink:href="#ueJpym6di7t12dzdhjfIRa"/></clipPath><path fill="#AC6E58" d="M256.1,307.7c34.3,0,63.2-25,72.5-59.2c-9.2-45.8-38.2-70.8-72.5-70.8c-34.3,0-63.2,25-72.5,70.8C192.9,282.7,221.8,307.7,256.1,307.7" clip-path="url(#ueJpym6di7t12dzdhjfIRb)"/><path fill="#AC6E58" d="M256.1,307.7c34.3,0,63.2-25,72.5-59.2c-9.2-45.8-38.2-70.8-72.5-70.8c-34.3,0-63.2,25-72.5,70.8C192.9,282.7,221.8,307.7,256.1,307.7"/><path fill="#AC6E58" d="M183.6,248.4c-2,9.9-3.1,20.8-3.1,32.7c0,45.6,19.6,82.6,75.6,82.6v-56.1C221.8,307.7,192.9,282.7,183.6,248.4"/><path fill="#AC6E58" d="M328.4 248.4c2 9.9 3.1 20.8 3.1 32.7 0 45.6-19.2 85-75.6 82.6v-56.1C290.2 307.7 319.1 282.7 328.4 248.4M210.3 343.7H241.8V387.09999999999997H210.3z"/><path fill="#AC6E58" d="M270.4 343.7H301.9V387.09999999999997H270.4z"/><path fill="#3A3A3B" d="M225.7 392.7c1.3 0 2.4 1.1 2.4 2.4v6h25.3c0-15.1-12.3-27.4-27.4-27.4-15.1 0-27.4 12.3-27.4 27.4h24.7v-6C223.2 393.8 224.3 392.7 225.7 392.7M285.9 392.7c1.3 0 2.4 1.1 2.4 2.4v6h25.3c0-15.1-12.3-27.4-27.4-27.4s-27.4 12.3-27.4 27.4h24.7v-6C283.4 393.8 284.5 392.7 285.9 392.7"/><path fill="#C07D62" d="M258.8,229.4v24.7h0c19.6,0,36.9-13,47.4-32.8v-10.7C306.1,223.2,282.5,229.4,258.8,229.4"/><path fill="#C07D62" d="M258.8 254.2L258.8 254.2c-19.6 0-36.9-13-47.4-32.8v68.9c0 6.2 1.2 12 3.4 17.4 6.8 16.5 23.1 28.1 42.1 28.1h1.8 1.9c19 0 35.2-11.6 42.1-28.2 2.2-5.3 3.4-11.2 3.4-17.4v-68.9C295.7 241.2 278.4 254.2 258.8 254.2M228.6 146.7c0 0-13.6-5.2-11.1-28.5 2.5-23.3 30.5 15.3 22.4 21.2C231.8 145.3 228.6 146.7 228.6 146.7"/><path fill="#D76D7A" d="M235.1,142.8c0,0-1-17-11.6-23.3C223.5,119.5,220.1,138.4,235.1,142.8"/><path fill="#C07D62" d="M289.6,146.7c0,0,13.6-5.2,11.1-28.5c-2.5-23.3-30.5,15.3-22.4,21.2C286.4,145.3,289.6,146.7,289.6,146.7"/><path fill="#D76D7A" d="M283.1,142.8c0,0,1-17,11.6-23.3C294.7,119.5,298.1,138.4,283.1,142.8"/><path fill="#C07D62" d="M211.4,210.6v10.7c10.4,19.8,27.7,32.8,47.3,32.8v-24.7C235.1,229.4,211.4,223.2,211.4,210.6"/><path fill="#C07D62" d="M260.6,136.1h-1.9h-1.8c-25.1,0-45.5,20.4-45.5,45.5v29c0,12.6,23.7,18.8,47.3,18.8c23.7,0,47.4-6.3,47.4-18.8v-29C306.1,156.5,285.8,136.1,260.6,136.1"/><path fill="#F6C899" d="M291.4,214c0,17.2-14.6,31.2-32.6,31.2c-18,0-32.6-14-32.6-31.2c0-17.2,0-31.2,32.6-31.2C292.1,182.8,291.4,196.7,291.4,214"/><path fill="#F6C899" d="M282.7,186.2c0-12.5-10.7-22.7-23.9-22.7c-13.2,0-23.9,10.1-23.9,22.7l23.9,5.6L282.7,186.2z"/><path fill="#F6C899" d="M236.8 187.9L258.8 194 280.8 187.9"/><path fill="none" stroke="#733F2B" stroke-linecap="round" stroke-miterlimit="10" stroke-width="13.782" d="M236.8 187.9L258.8 194 280.8 187.9M258.8 194L258.8 229M232.3 225.5c0 0 25.2 13.7 53.1 0"/><path fill="#4A1C12" d="M213.7,166.5c0,5.4,3.3,13.5,7.5,13.5c4.1,0,7.5-8.1,7.5-13.5s-3.3-9.7-7.5-9.7C217,156.8,213.7,161.2,213.7,166.5"/><path fill="#C07D62" d="M228.6,164.2c0,0-2.7-16.1-11.1-13.1c0,0-6.3,4.7-6.3,12.4C211.2,171.2,228.6,164.2,228.6,164.2"/><path fill="#F6E9E5" d="M223.5,169.3c0,1.6,0.8,2.9,1.8,2.9c1,0,1.8-1.3,1.8-2.9s-0.8-2.9-1.8-2.9C224.3,166.4,223.5,167.7,223.5,169.3"/><path fill="#4A1C12" d="M303.9,166.5c0,5.4-3.3,13.5-7.5,13.5c-4.1,0-7.5-8.1-7.5-13.5s3.3-9.7,7.5-9.7C300.6,156.8,303.9,161.2,303.9,166.5"/><path fill="#C07D62" d="M289,164.2c0,0,2.7-16.1,11.1-13.1c0,0,6.4,4.7,6.3,12.4C306.4,171.2,289,164.2,289,164.2"/><path fill="#F6E9E5" d="M294.1,169.3c0,1.6-0.8,2.9-1.8,2.9c-1,0-1.8-1.3-1.8-2.9s0.8-2.9,1.8-2.9C293.3,166.4,294.1,167.7,294.1,169.3"/></svg>