<svg xmlns="http://www.w3.org/2000/svg"  viewBox="0 0 512 512" width="48px" height="48px"><path fill="#3B3A38" d="M504.1,256c0,137-111.1,248.1-248.1,248.1S7.9,393,7.9,256C7.9,119,119,7.9,256,7.9S504.1,119,504.1,256"/><path fill="#E98130" d="M211.2 352.6H247.39999999999998V391.8H211.2zM264.6 352.6H300.8V391.8H264.6z"/><path fill="#F6C899" d="M229.3 378.1c-14.1 0-25.5 11.4-25.5 25.5h51.1C254.8 389.5 243.4 378.1 229.3 378.1M282.7 378.1c-14.1 0-25.5 11.4-25.5 25.5h51.1C308.3 389.5 296.8 378.1 282.7 378.1"/><path fill="#E98130" d="M322,280.7c-9.1-27.8-35.2-47.9-66-47.9c-30.8,0-56.9,20.1-66,47.9c-2.2,6.8-3.4,14-3.4,21.5c0,38.3,31.1,75.2,69.4,75.2c38.3,0,69.4-36.9,69.4-75.2C325.4,294.7,324.2,287.5,322,280.7"/><path fill="#F6C899" d="M243.6,201.8c0,16.4-13.3,29.7-29.7,29.7c-16.4,0-29.7-13.3-29.7-29.7c0-16.4,13.3-29.7,29.7-29.7C230.3,172.2,243.6,185.5,243.6,201.8"/><path fill="#E98130" d="M192,208.9c0,17.4-14.1,31.5-31.4,31.5c-17.4,0-31.5-14.1-31.5-31.5s14.1-31.5,31.5-31.5C178,177.5,192,191.5,192,208.9"/><path fill="#575756" d="M181.1,208.9c0,11.3-9.2,20.5-20.5,20.5c-11.3,0-20.5-9.2-20.5-20.5c0-11.3,9.2-20.5,20.5-20.5C171.9,188.4,181.1,197.6,181.1,208.9"/><path fill="#E98130" d="M382.9,208.9c0,17.4-14.1,31.5-31.4,31.5c-17.4,0-31.5-14.1-31.5-31.5s14.1-31.5,31.5-31.5C368.8,177.5,382.9,191.5,382.9,208.9"/><path fill="#575756" d="M371.9,208.9c0,11.3-9.2,20.5-20.5,20.5c-11.3,0-20.5-9.2-20.5-20.5c0-11.3,9.2-20.5,20.5-20.5C362.7,188.4,371.9,197.6,371.9,208.9"/><path fill="#E98130" d="M257.5,107.1c-54,0-97.8,43.8-97.8,97.8c0,54,43.8,97.8,97.8,97.8c54,0,97.8-43.8,97.8-97.8C355.3,150.9,311.5,107.1,257.5,107.1"/><path fill="#575756" d="M302.8,241.3c22.9-1.5,41-20.4,41-43.7c0-24.2-19.6-43.8-43.8-43.8c-20.4,0-37.6,14-42.4,33c-4.8-18.9-22-33-42.4-33c-24.2,0-43.8,19.6-43.8,43.8c0,24.2,19.6,43.8,43.8,43.8V264c0,3.7,0.5,7.2,1.3,10.6c9.9-12.6,25.2-20.7,42.5-20.7c17.3,0,32.6,8.1,42.5,20.7c0.8-3.4,1.3-6.9,1.3-10.6V241.3z"/><path fill="#F6C899" d="M258.9,253.9c-17.3,0-32.6,8.1-42.5,20.8c4.7,19.1,21.9,33.2,42.5,33.2c20.6,0,37.8-14.2,42.5-33.2C291.6,262,276.2,253.9,258.9,253.9"/><path fill="#411713" d="M252.6 240.7c0 3.5-2.8 6.4-6.4 6.4-3.5 0-6.4-2.8-6.4-6.4 0-3.5 2.8-6.4 6.4-6.4C249.8 234.4 252.6 237.2 252.6 240.7M275.2 240.7c0 3.5-2.8 6.4-6.4 6.4s-6.4-2.8-6.4-6.4c0-3.5 2.9-6.4 6.4-6.4S275.2 237.2 275.2 240.7"/><path fill="#F6C899" d="M242.9 198.9c0 16-13 29-29 29-16 0-29-13-29-29 0-16 13-29 29-29C229.9 170 242.9 182.9 242.9 198.9M330.2 198.9c0 16-13 29-29 29s-29-13-29-29c0-16 13-29 29-29S330.2 182.9 330.2 198.9"/><path fill="#411713" d="M229.6 198.9c0 8.7-7 15.7-15.7 15.7-8.7 0-15.7-7-15.7-15.7 0-8.7 7-15.7 15.7-15.7C222.6 183.2 229.6 190.3 229.6 198.9M316.9 198.9c0 8.7-7 15.7-15.7 15.7-8.7 0-15.7-7-15.7-15.7 0-8.7 7-15.7 15.7-15.7C309.9 183.2 316.9 190.3 316.9 198.9"/><path fill="#FFF" d="M224.5 193.7c0 2.9-2.4 5.2-5.2 5.2-2.9 0-5.2-2.3-5.2-5.2s2.3-5.2 5.2-5.2C222.1 188.4 224.5 190.8 224.5 193.7M311.7 193.7c0 2.9-2.4 5.2-5.2 5.2-2.9 0-5.2-2.3-5.2-5.2s2.3-5.2 5.2-5.2C309.3 188.4 311.7 190.8 311.7 193.7"/><path fill="#411713" d="M257.5,293.9c-16,0-22.3-9-22.6-9.4c-0.5-0.7-0.3-1.6,0.4-2c0.6-0.5,1.6-0.3,2,0.4c0.2,0.4,5.9,8.1,20.2,8.1c13.1,0,20.2-8.1,20.3-8.2c0.5-0.6,1.4-0.7,2-0.2c0.6,0.5,0.7,1.4,0.2,2.1C279.7,285,272,293.9,257.5,293.9"/><path fill="#C86C2C" d="M261.3,199.7c1.9-4.8,3-17.6-5.9-33.8c-3.9-7.2-3.7-5.8-5.1-9.3c-1.4-3.5-3.3-6.7-5.8-9.7c-2.6-3-3.3-4.6-8-6.7c-2,4.8-2.8,5.6-4.5,11.6c-1,3.8-1.4,9.3,0,12.8c1.4,3.5,2.9,7.2,7.1,11.6C241.6,179.1,258.7,190.4,261.3,199.7"/><path fill="#C86C2C" d="M273.8,182.8c6.2-24.2-16.1-47.2-18.6-50.2c-2.6-3-5.7-5.8-10.3-7.9c-2,4.8-2.3,8.9-2.2,12.9c0.2,3.9-0.8,14.2,8.2,20.8C263.8,167.9,269.1,173,273.8,182.8"/><path fill="#F6C899" d="M339.4,396.8c-3.2,7.5-13.5,10.3-23,6.3c-9.5-4.1-14.6-13.5-11.3-21"/><path fill="#E98130" d="M339.1,398.8c24.5-61.3,30-106.3,16.2-133.9c-6.8-13.6-17.3-20.7-24.9-22.7l-9.9,36.5c-1.3-0.4-1.8-0.7-1.9-0.7c5.9,3.5,15.8,30.7-14.6,106.7L339.1,398.8z"/><path fill="#F6C899" d="M172.6,396.8c3.2,7.5,13.6,10.3,23.1,6.3c9.5-4.1,14.6-13.5,11.3-21"/><path fill="#E98130" d="M172.9,398.8c-24.5-61.3-30-106.3-16.2-133.9c6.8-13.6,17.3-20.7,24.9-22.7l9.9,36.5c1.3-0.4,1.8-0.7,1.9-0.7c-5.9,3.5-15.8,30.7,14.6,106.7L172.9,398.8z"/></svg>