<svg xmlns="http://www.w3.org/2000/svg"  viewBox="0 0 512 512" width="48px" height="48px"><path fill="#D4D2B1" d="M504.1,256c0,137-111.1,248.1-248.1,248.1C119,504.1,7.9,393,7.9,256S119,7.9,256,7.9C393,7.9,504.1,119,504.1,256"/><path fill="#3B2314" d="M353.4,282.4c0,50.4-43.6,91.3-97.4,91.3c-53.8,0-97.4-40.9-97.4-91.3c0-50.4,43.6-91.3,97.4-91.3C309.8,191.1,353.4,232,353.4,282.4"/><path fill="#9D8775" d="M320.8,285.2c0,52-29,94.1-64.8,94.1c-35.8,0-64.8-42.1-64.8-94.1c0-52,29-94.1,64.8-94.1C291.8,191.1,320.8,233.3,320.8,285.2"/><path fill="#AC9A8A" d="M300.2,285.2c0,52-19.8,94.1-44.2,94.1c-24.4,0-44.2-42.1-44.2-94.1c0-52,19.8-94.1,44.2-94.1C280.4,191.1,300.2,233.3,300.2,285.2"/><path fill="#9D8775" d="M347.5,197.6c0,43.7-41,79.1-91.5,79.1c-50.5,0-91.5-35.4-91.5-79.1s40.9-79.1,91.5-79.1C306.5,118.5,347.5,153.9,347.5,197.6"/><path fill="#FFF" d="M254.4,195.5c0,23.1-18.7,41.8-41.8,41.8s-41.8-18.7-41.8-41.8c0-23.1,18.7-41.8,41.8-41.8S254.4,172.4,254.4,195.5"/><path fill="#3B2314" d="M250,195.5c0,20.6-16.7,37.4-37.4,37.4s-37.4-16.7-37.4-37.4c0-20.6,16.7-37.4,37.4-37.4S250,174.9,250,195.5"/><path fill="#603813" d="M240.7,195.5c0,15.5-12.6,28.1-28.1,28.1c-15.5,0-28.1-12.6-28.1-28.1c0-15.5,12.6-28.1,28.1-28.1C228.1,167.4,240.7,180,240.7,195.5"/><path fill="#3B2314" d="M234.2,195.5c0,11.9-9.7,21.6-21.6,21.6c-11.9,0-21.6-9.7-21.6-21.6c0-11.9,9.7-21.6,21.6-21.6C224.5,173.9,234.2,183.6,234.2,195.5"/><path fill="#FFF" d="M232.1 182.6c0 3.6-2.9 6.5-6.5 6.5-3.6 0-6.5-2.9-6.5-6.5 0-3.6 2.9-6.5 6.5-6.5C229.2 176 232.1 179 232.1 182.6M209.3 208c0 5.1-4.1 9.2-9.2 9.2s-9.2-4.1-9.2-9.2 4.1-9.2 9.2-9.2S209.3 202.9 209.3 208M341 195.5c0 23.1-18.7 41.8-41.8 41.8-23.1 0-41.8-18.7-41.8-41.8 0-23.1 18.7-41.8 41.8-41.8C322.3 153.7 341 172.4 341 195.5"/><path fill="#3B2314" d="M336.5,195.5c0,20.6-16.7,37.4-37.4,37.4s-37.4-16.7-37.4-37.4c0-20.6,16.7-37.4,37.4-37.4S336.5,174.9,336.5,195.5"/><path fill="#603813" d="M327.2,195.5c0,15.5-12.6,28.1-28.1,28.1c-15.5,0-28.1-12.6-28.1-28.1c0-15.5,12.6-28.1,28.1-28.1C314.7,167.4,327.2,180,327.2,195.5"/><path fill="#3B2314" d="M320.8,195.5c0,11.9-9.7,21.6-21.6,21.6c-11.9,0-21.6-9.7-21.6-21.6c0-11.9,9.7-21.6,21.6-21.6C311.1,173.9,320.8,183.6,320.8,195.5"/><path fill="#FFF" d="M318.7 182.6c0 3.6-2.9 6.5-6.5 6.5-3.6 0-6.5-2.9-6.5-6.5 0-3.6 2.9-6.5 6.5-6.5C315.7 176 318.7 179 318.7 182.6M295.9 208c0 5.1-4.1 9.2-9.2 9.2s-9.2-4.1-9.2-9.2 4.1-9.2 9.2-9.2S295.9 202.9 295.9 208"/><path fill="#9D8775" d="M320.8 143.8c0 0 14.8-3.9 23.2-13.3 8.4-9.5-7.4 34.3-7.4 34.3L320.8 143.8zM192.1 143.8c0 0-14.8-3.9-23.2-13.3-8.4-9.5 7.4 34.3 7.4 34.3L192.1 143.8z"/><path fill="#F37920" d="M262 250.2c-1.4 1.6-4 1.7-6 1.8-2-.1-4.6-.3-6-1.8-4.3-5.9-8.6-11.8-12.9-17.7-1.6-1.4 6.1-10 18.9-10 12.8 0 20.5 8.5 18.9 10C270.6 238.4 266.3 244.3 262 250.2M236.6 385c0 4.7-3.8 8.5-8.5 8.5-4.7 0-8.5-3.8-8.5-8.5v-22.5c0-4.7 3.8-8.5 8.5-8.5 4.7 0 8.5 3.8 8.5 8.5V385zM219.5 382c0 4.3-3.4 7.7-7.7 7.7s-7.7-3.5-7.7-7.7v-20.3c0-4.3 3.5-7.7 7.7-7.7s7.7 3.5 7.7 7.7V382zM204.1 379c0 3.8-3.1 6.9-6.9 6.9-3.8 0-6.9-3.1-6.9-6.9v-18.2c0-3.8 3.1-6.9 6.9-6.9 3.8 0 6.9 3.1 6.9 6.9V379zM275.4 385c0 4.7 3.8 8.5 8.5 8.5 4.7 0 8.5-3.8 8.5-8.5v-22.5c0-4.7-3.8-8.5-8.5-8.5-4.7 0-8.5 3.8-8.5 8.5V385zM292.5 382c0 4.3 3.5 7.7 7.7 7.7 4.3 0 7.7-3.5 7.7-7.7v-20.3c0-4.3-3.4-7.7-7.7-7.7-4.3 0-7.7 3.5-7.7 7.7V382zM307.9 379c0 3.8 3.1 6.9 6.9 6.9 3.8 0 6.9-3.1 6.9-6.9v-18.2c0-3.8-3.1-6.9-6.9-6.9-3.8 0-6.9 3.1-6.9 6.9V379z"/></svg>