<svg xmlns="http://www.w3.org/2000/svg"  viewBox="0 0 512 512" width="48px" height="48px"><path fill="#65A844" d="M504.1,256c0,137-111.1,248.1-248.1,248.1S7.9,393,7.9,256C7.9,119,119,7.9,256,7.9S504.1,119,504.1,256"/><path fill="#C5CBD4" d="M287 361.1c2.8-.1 5.5-.3 8-.6h0C292.5 360.8 289.8 361 287 361.1M286.5 361.1c-1.2 0-2.5.1-3.8.1C284 361.2 285.3 361.1 286.5 361.1M317.5 329.7c-.2 0-.3.1-.5.1C317.2 329.8 317.4 329.7 317.5 329.7M315.1 330.3c-.3.1-.5.1-.8.2C314.6 330.4 314.9 330.3 315.1 330.3M306.3 331.4c-.4 0-.9 0-1.3.1C305.4 331.4 305.9 331.4 306.3 331.4M309.5 331.2c-.4 0-.8.1-1.2.1C308.8 331.3 309.1 331.2 309.5 331.2M281.8 315.7c1.8-.3 3.6-.6 5.4-1C285.4 315 283.6 315.4 281.8 315.7M319.7 328.9c-.1 0-.1 0-.1 0C319.6 329 319.6 329 319.7 328.9M302.6 331.4c-.4 0-.8 0-1.2 0C301.8 331.4 302.2 331.4 302.6 331.4M288.3 314.5c13.7-2.8 25.9-7.3 36.1-13.1 0 0 0 0 0 0C314.2 307.1 301.9 311.6 288.3 314.5M312.5 330.8c-.3.1-.7.1-1 .2C311.8 330.9 312.1 330.9 312.5 330.8"/><path fill="#908BC0" d="M210.2 311.1c-.2-.1-.4-.1-.6-.2C209.8 311 210 311.1 210.2 311.1M220.9 314c-.4-.1-.7-.2-1.1-.3C220.2 313.8 220.5 313.9 220.9 314M187.1 301.3c6.7 3.8 14.2 7 22.5 9.6C201.4 308.4 193.8 305.1 187.1 301.3L187.1 301.3zM219.8 313.7c-3.3-.8-6.5-1.6-9.6-2.6C213.3 312.1 216.5 313 219.8 313.7M225.8 315c-1.6-.3-3.3-.7-4.9-1C222.5 314.3 224.1 314.7 225.8 315"/><path fill="#3C3D3C" d="M215.8 353.1H249.20000000000002V389.20000000000005H215.8zM265.1 353.1H298.5V389.20000000000005H265.1z"/><path fill="#3C3D3C" d="M232.5 376.6c-13 0-23.5 10.5-23.5 23.5h47C256 387.1 245.5 376.6 232.5 376.6M281.7 376.6c-13 0-23.5 10.5-23.5 23.5h47C305.3 387.1 294.7 376.6 281.7 376.6"/><path fill="#F5EFF1" d="M307.5,300.5c-7.1-21.9-27.7-37.7-52-37.7c-24.3,0-44.8,15.8-52,37.7c-1.7,5.3-2.7,11-2.7,16.9c0,30.2,24.5,54.7,54.7,54.7c30.2,0,54.7-24.5,54.7-54.7C310.2,311.5,309.3,305.9,307.5,300.5"/><path fill="#3C3D3C" d="M282.5 349.7c-7.5 0-13.7-6.1-13.7-13.7s6.1-13.7 13.7-13.7M229.5 349.7c7.5 0 13.7-6.1 13.7-13.7s-6.1-13.7-13.7-13.7M309 111.9c-15.5 0-28.1 15.3-28.1 30.8s12.6 28.1 28.1 28.1c15.5 0 28.1-12.6 28.1-28.1S324.5 111.9 309 111.9M203.1 111.9c-15.5 0-28.1 15.3-28.1 30.8s12.6 28.1 28.1 28.1c15.5 0 28.1-12.6 28.1-28.1S218.6 111.9 203.1 111.9"/><path fill="#F5EFF1" d="M346.2,237.2c0.6-4.3,1-8.6,1-13c0-50.5-40.8-91.5-91.2-91.5h-0.4c-50.6,0-91.6,40.9-91.6,91.5c0,4.5,0.3,8.8,0.9,13.1c-5,7-7.8,14.6-7.8,22.6c0,16.3,9.2,30.9,29.9,41.4v0c6.9,3.8,14.2,7.1,22.5,9.6c0.2,0.1,0.4,0.1,0.6,0.2c3.1,1,6.3,1.8,9.6,2.6c0.4,0.1,0.7,0.2,1.1,0.3c1.6,0.3,4.9,1,4.9,1s19.7,3.1,30,3.3c0.3,0,0.6,0,0.9,0c13.1,0,30.5-3.6,30.5-3.6c0.3-0.1,1-0.1,1.4-0.2c13.7-2.8,22.7-7.3,36.4-13.2v0c20.7-10.5,29.6-25.2,29.6-41.5C354.4,251.8,351.3,244.2,346.2,237.2"/><path fill="#3C3D3C" d="M188.5 219.7c-13.1 17.7-11.8 40.9 2.9 51.8 14.7 10.8 28.4 1.4 41.5-16.3 13.1-17.8 20.7-37.1 5.9-48C224.2 196.4 201.6 202 188.5 219.7M323.6 219.7c13.1 17.7 11.8 40.9-2.9 51.8-14.7 10.8-28.4 1.4-41.5-16.3-13.1-17.8-20.7-37.1-6-48C287.9 196.4 310.4 202 323.6 219.7"/><path fill="#F5EFF1" d="M311.2,234.2c0,8.5-6.9,15.5-15.5,15.5c-8.6,0-15.5-6.9-15.5-15.5c0-8.6,6.9-15.5,15.5-15.5C304.2,218.7,311.2,225.6,311.2,234.2"/><path fill="#3C3D3C" d="M306.6,234.2c0,6-4.9,10.9-10.9,10.9c-6,0-10.9-4.9-10.9-10.9c0-6,4.9-10.9,10.9-10.9C301.7,223.3,306.6,228.2,306.6,234.2"/><path fill="#D2C5C1" d="M231.9,234.2c0,8.5-6.9,15.5-15.5,15.5c-8.6,0-15.5-6.9-15.5-15.5c0-8.6,6.9-15.5,15.5-15.5C224.9,218.7,231.9,225.6,231.9,234.2"/><path fill="#3C3D3C" d="M227.3,234.2c0,6-4.9,10.9-10.9,10.9c-6,0-10.9-4.9-10.9-10.9c0-6,4.9-10.9,10.9-10.9C222.4,223.3,227.3,228.2,227.3,234.2"/><path fill="#FFF" d="M224.4 230.9c0 2.2-1.8 4-4 4-2.2 0-4-1.8-4-4s1.8-4 4-4C222.6 226.9 224.4 228.7 224.4 230.9M303 230.9c0 2.2-1.8 4-4 4-2.2 0-4-1.8-4-4s1.8-4 4-4C301.2 226.9 303 228.7 303 230.9"/><path fill="#3C3D3C" d="M274.5,280.2c0-0.1,0-0.1,0-0.2v0c0,0,0,0,0,0c-0.2-4.6-8.4-8.3-18.5-8.3c-10,0-18.2,3.7-18.5,8.3c0,0,0,0,0,0c0,0,0,0,0,0c0,0.1,0,0.1,0,0.2c0,4.3,6.8,10,15.6,11v12.7c-0.9,1-2.9,3-5,1.9c-1.3-0.7-2.9-0.2-3.6,1.1c-0.7,1.3-0.2,2.9,1.1,3.6c1.3,0.7,2.6,1,3.8,1c2.6,0,4.9-1.3,6.5-2.9c1.6,1.5,3.9,2.9,6.5,2.9c1.2,0,2.5-0.3,3.8-1c1.3-0.7,1.8-2.3,1.2-3.6c-0.7-1.3-2.3-1.8-3.6-1.1c-2.2,1.1-4.2-0.8-5-1.8v-12.8C267.7,290.2,274.5,284.5,274.5,280.2"/></svg>