<svg xmlns="http://www.w3.org/2000/svg"  viewBox="0 0 512 512" width="48px" height="48px"><path fill="#EB9682" d="M504.1,256c0,137-111.1,248.1-248.1,248.1C119,504.1,7.9,393,7.9,256C7.9,119,119,7.9,256,7.9C393,7.9,504.1,119,504.1,256"/><path fill="#F6E9E5" d="M299.7,257.3c10.1-13.3,53.2-43.8,39.6-100.6c-13.6-56.8-38.1-83.6-54.9-25.2c-16.9,58.4,3.8,115.4,3.8,115.4L299.7,257.3z"/><path fill="#F09D9E" d="M309.8,121.3c0,0,0,11.8-3.1,26.7c-3.2,14.9,12.1,49.8-3.2,86.9C303.5,234.9,360.4,194,309.8,121.3"/><path fill="#F6E9E5" d="M217.6,257.3c-10.1-13.3-53.2-43.8-39.6-100.6c13.6-56.8,38.1-83.6,55-25.2c16.8,58.4-3.8,115.4-3.8,115.4L217.6,257.3z"/><path fill="#F09D9E" d="M207.4,121.3c0,0,0,11.8,3.1,26.7c3.2,14.9-12.1,49.8,3.2,86.9C213.8,234.9,156.9,194,207.4,121.3"/><path fill="#4A1C12" d="M225.9 219.6c.2-.1.4-.2.6-.2C226.2 219.4 226.1 219.5 225.9 219.6M285.6 219.3c.2.1.4.1.6.2C286 219.5 285.8 219.4 285.6 219.3"/><path fill="#F6E9E5" d="M290.4,392.5v-13.9c13.8-8.9,21.1-22.4,21.9-37.7c0.9-1.3,1.8-2.6,2.6-3.9c14.9-9.1,29.6-13.5,29.6-13.5c-9.2-4.6-14.4-38.7-14.4-38.7c-5.2-35.4-21.6-57.1-41.3-64.3c-0.9-0.3-1.8-0.7-2.7-1.1c-0.2-0.1-0.4-0.1-0.6-0.2c-8.5-3.2-18.6-5.1-29.6-5.1s-21.1,1.9-29.6,5.1c-0.2,0.1-0.4,0.2-0.6,0.2c-0.9,0.4-1.7,0.7-2.6,1c-19.7,7.2-36.1,28.9-41.3,64.3c0,0-5.2,34.1-14.4,38.7c0,0,14.2,4.3,28.9,13.1c1,1.7,2.2,3.4,3.3,5.1c1,15,8,28.2,21.8,36.9v13.9c-6.9,3.7-7.6,6.6-7.6,13.5h40c0-6.9-4.9-9.8-4.9-13.5v-3.7c0,0.5,3.7,0.7,6.9,0.7c3.2,0,6.9-0.3,6.9-0.7v3.7c0,3.7-4.7,6.6-4.7,13.5h40C298.2,399.2,297.3,396.2,290.4,392.5"/><path fill="#B6392F" d="M224.5 280c0 6-4.8 10.8-10.8 10.8-6 0-10.8-4.8-10.8-10.8 0-6 4.9-10.8 10.8-10.8C219.7 269.2 224.5 274 224.5 280M309.2 280c0 6-4.8 10.8-10.8 10.8s-10.8-4.8-10.8-10.8c0-6 4.8-10.8 10.8-10.8S309.2 274 309.2 280"/><path fill="#FFF" d="M221.6 276.7c0 1.8-1.5 3.3-3.3 3.3s-3.3-1.5-3.3-3.3c0-1.8 1.5-3.3 3.3-3.3S221.6 274.8 221.6 276.7M306.8 276.7c0 1.8-1.5 3.3-3.3 3.3-1.8 0-3.3-1.5-3.3-3.3 0-1.8 1.5-3.3 3.3-3.3C305.4 273.4 306.8 274.8 306.8 276.7"/><path fill="#F09D9E" d="M271,306l-15.2,1.7l-15.2-1.7c-1.4-0.2-2.7,0.9-2.9,2.3c-0.2,1.4,0.9,2.7,2.3,2.9l13,1.5v19.1c-0.9,1-2.9,2.9-4.9,1.9c-1.3-0.7-2.9-0.2-3.6,1.1c-0.7,1.3-0.2,2.9,1.1,3.6c1.3,0.7,2.5,1,3.7,1c2.5,0,4.8-1.3,6.4-2.8c1.6,1.5,3.8,2.8,6.4,2.8c1.2,0,2.5-0.3,3.8-1c1.3-0.7,1.8-2.3,1.1-3.5c-0.7-1.3-2.3-1.8-3.5-1.1c-2.2,1.1-4.1-0.8-4.9-1.8v-19.1l13-1.5c1.4-0.2,2.5-1.5,2.3-2.9C273.8,306.9,272.5,305.8,271,306"/></svg>