<svg xmlns="http://www.w3.org/2000/svg"  viewBox="0 0 512 512" width="48px" height="48px"><path fill="#49A0AE" d="M504.1,256c0,137-111.1,248.1-248.1,248.1S7.9,393,7.9,256C7.9,119,119,7.9,256,7.9S504.1,119,504.1,256"/><path fill="#F7F3CE" d="M217.8,346.4c-5.2,0-9.4,4.2-9.4,9.4c0,19-15.5,34.5-34.5,34.5c-17.6,0-32.2-13.3-34.2-30.5c-9.3,4.2-15.5,1.9-18.9-0.5c1.8,27.7,24.9,49.7,53.1,49.7c29.4,0,53.3-23.9,53.3-53.3C227.2,350.6,223,346.4,217.8,346.4"/><path fill="#F7F3CE" d="M139.8 359.8c-.2-1.3-.3-2.6-.3-4 0-4 .7-7.8 2-11.5 1.7-4.9-.8-10.3-5.7-12-4.9-1.7-10.3.8-12 5.7-2 5.7-3.1 11.7-3.1 17.8 0 1.2.1 2.4.2 3.6C124.2 361.7 130.4 364.1 139.8 359.8M334.5 307.3c-.5.7-1.4 1.5-1.9 2.2.5-.7.8-1.4 1.3-2.2.1-1.1.1-2.2.1-3.3 0-42.2-34.3-76.4-76.5-76.4s-76.4 34.2-76.4 76.4c0 1.4 1.2 2.7 1.3 4.1 1.1 20.4 11.5 38.7 25.3 51.8V384c-6.9 5.7-14.3 17.5-14.3 24.4h62.5c0-6.9-6.8-18.7-13.7-24.4v-4.8c6.9.8 9.1 1.3 13.8 1.3 4.7 0 13.8-.5 13.8-1.3v4.8c-6.9 5.7-10.7 17.5-10.7 24.4h62.5c0-6.9-3.6-18.7-10.5-24.4v-24.1C324.8 346.6 333.6 328.1 334.5 307.3M257.4 346.4c-.1 0-.2 0-.2 0-24.6 0-46.8-9-62.9-23.5 5.8 5.2 12.5 9.8 19.7 13.4-.9-5.1-1.6-10.4-2.5-16 6 1.8 12.4 3.6 19.2 5.2 0 0 0 0 0 .1 5.1 2.5 9.7 5.4 15.2 8.7 3.5 2.1 10 4.2 10 6.6v-33.2 33.2c6.9-2.4 8-4.6 11.6-6.6 5.5-3.2 11.2-6.1 16.3-8.7 6.9-1.6 13.6-3.4 19.7-5.3-.8 5.4-1.4 10.6-2.2 15.6 10.7-5.5 20.1-13 27.4-21.9C312.5 333.6 286.7 346.4 257.4 346.4M191.7 320.5c.8.7 1.5 1.5 2.3 2.2C193.3 322 192.5 321.3 191.7 320.5M331.8 310c-.4.6-.8 1.1-1.2 1.7C331 311.1 331.4 310.5 331.8 310M330.3 312c-.5.6-.9 1.2-1.4 1.8C329.4 313.2 329.8 312.6 330.3 312"/><path fill="#F7F3CE" d="M257.4,324.9L257.4,324.9c-3.7-6.9-39.9-1.3-45.9-3.1c0.8,5.6,1.6,10.2,2.5,15.3c4.4,26,11.3,43.7,43.4,43.7c33.1,0,39.7-18.5,44-44.7c0.8-4.9,1.5-8.8,2.3-14.2C297.6,323.7,261.1,318,257.4,324.9"/><path fill="#0B191C" d="M243.6,311.1L243.6,311.1C243.6,311.1,243.6,311.2,243.6,311.1C243.6,311.2,243.6,311.1,243.6,311.1"/><path fill="#A94825" d="M257.4 307.5C257.4 307.5 257.4 307.5 257.4 307.5c.1 0 .1 0 .2 0v-52.1-32.2c-.1 0-.1 0-.2 0v32.2V307.5zM257.4 307.5L257.4 307.5C257.4 307.5 257.4 307.5 257.4 307.5 257.4 307.5 257.4 307.5 257.4 307.5"/><path fill="#AF5C2B" d="M228.2,143.6c0,22.5-18.2,40.7-40.7,40.7c-22.5,0-40.7-18.2-40.7-40.7c0-22.5,18.2-40.7,40.7-40.7C209.9,102.9,228.2,121.1,228.2,143.6"/><path fill="#4A1C12" d="M210.9,143.6c0,13-10.5,23.5-23.5,23.5c-13,0-23.5-10.5-23.5-23.5s10.5-23.5,23.5-23.5C200.4,120.1,210.9,130.6,210.9,143.6"/><path fill="#F7F3CE" d="M365.9,143.6c0,22.5-18.2,40.7-40.7,40.7c-22.5,0-40.7-18.2-40.7-40.7c0-22.5,18.2-40.7,40.7-40.7C347.7,102.9,365.9,121.1,365.9,143.6"/><path fill="#D76D7A" d="M348.7,143.6c0,13-10.5,23.5-23.5,23.5c-13,0-23.5-10.5-23.5-23.5s10.5-23.5,23.5-23.5C338.2,120.1,348.7,130.6,348.7,143.6"/><path fill="#F7F3CE" d="M228.2,143.6c0,22.5-18.2,40.7-40.7,40.7c-22.5,0-40.7-18.2-40.7-40.7c0-22.5,18.2-40.7,40.7-40.7C209.9,102.9,228.2,121.1,228.2,143.6"/><path fill="#D76D7A" d="M210.9,143.6c0,13-10.5,23.5-23.5,23.5c-13,0-23.5-10.5-23.5-23.5s10.5-23.5,23.5-23.5C200.4,120.1,210.9,130.6,210.9,143.6"/><path fill="#E96331" d="M257.4,136.2L257.4,136.2C257.4,136.2,257.4,136.2,257.4,136.2C257.4,136.2,257.4,136.2,257.4,136.2"/><path fill="#A94825" d="M257.6 136.2c0 0-.1 0-.1 0C257.5 136.2 257.5 136.2 257.6 136.2L257.6 136.2zM257.6 221.6v-85.3c0 0-.1 0-.1 0 0 0-.1 0-.1 0v85.3C257.4 221.6 257.5 221.6 257.6 221.6"/><path fill="#A94825" d="M257.4,305.9C257.4,305.9,257.4,305.9,257.4,305.9c0.1,0,0.1,0,0.2,0v-52.1v-32.2c-0.1,0-0.1,0-0.2,0v32.2V305.9z"/><path fill="#F7F3CE" d="M255.9,116.1v2.8h1.3h-1.3V116.1c-75.8,0.1-100,49.6-99.7,103.5c0.1,25.8,7.3,69.9,7.3,69.9s2.3,8.6,43.6,23.2c0-1.7,50.1,10.1,50.1,10.1c15.7,0,29.6-3.7,43.8-8.4c1.6-0.5,3.2-1.1,3.2-1.6v0c41.3-14.7,45-23.2,45-23.2s6.9-44.9,7.1-69.9C356.7,165.7,331.7,116.1,255.9,116.1"/><path fill="#F7F3CE" d="M304.1,298.3c0-26.6-4.2-28.7-4.2-28.7c-3.3-2.7-6.4-4.8-10.5-6.5c-8.8-2.8-15.2-6.2-32.4,2.2c-17.2-8.4-23.9-4.9-32.6-2.2c-4.1,1.7-7.8,3.8-11.1,6.5c0,0-5.6,2.1-5.6,28.7v19.6c13.8,5.5,31.3,8.8,49.8,8.8l-0.1-1h-1.5v0.7l-0.9,0.7c17.5,0,35.3-3.6,49.1-9.1V298.3z"/><path fill="#4A1C12" d="M189.9,206.5c0,0,41.8-12.1,40.9,30.4C230.8,236.9,189.9,251.8,189.9,206.5"/><path fill="#F6C899" d="M226.4,222.6c0,8.6-6.9,15.5-15.5,15.5c-8.6,0-15.5-6.9-15.5-15.5s6.9-15.5,15.5-15.5C219.4,207,226.4,214,226.4,222.6"/><path fill="#FFF" d="M221.4,216.1c0,3-2.4,5.4-5.3,5.4c-3,0-5.3-2.4-5.3-5.4c0-2.9,2.4-5.3,5.3-5.3C219,210.8,221.4,213.2,221.4,216.1"/><path fill="#4A1C12" d="M325.2,206.5c0,0-41.8-12.1-40.9,30.4C284.3,236.9,325.2,251.8,325.2,206.5"/><path fill="#F6C899" d="M288.5,222.6c0,8.6,6.9,15.5,15.5,15.5c8.6,0,15.5-6.9,15.5-15.5s-7-15.5-15.5-15.5C295.5,207,288.5,214,288.5,222.6"/><path fill="#FFF" d="M304.8,216.1c0,3,2.4,5.4,5.4,5.4c2.9,0,5.3-2.4,5.3-5.4c0-2.9-2.4-5.3-5.3-5.3C307.2,210.8,304.8,213.2,304.8,216.1"/><path fill="#D76D7A" d="M255,280.4c-2.3-0.4-4.3-1.4-5.6-3c-6.2-7.2-14.3-12.3-18.7-14.7c4.2-1.3,13-3.3,26.7-3.3c13.5,0,22.3,2,26.6,3.3c-7.7,4.7-14.5,10-19.2,14.9c-1.3,1.4-3.1,2.3-5.2,2.7H255z"/><path fill="#4A1C12" d="M257.3 261c10.4 0 18 1.2 22.8 2.3-6.6 4.3-12.2 8.8-16.5 13.3-1.1 1.1-2.5 1.9-4.3 2.3h-4.1c-2.1-.4-3.7-1.2-4.7-2.4-5-5.9-11.3-10.3-15.8-13.1C239.5 262.1 247 261 257.3 261M257.3 257.9c-20.6 0-30.5 4.5-30.4 4.5v0c.2.3 12.7 6.1 21.2 16 1.8 2.1 4.3 3.1 6.8 3.5h4.7c2.3-.4 4.5-1.4 6.2-3.2 8.9-9.3 21.6-16.2 21.7-16.4C287.6 262.3 277.7 257.9 257.3 257.9M255.5 292.2c-3.8 6.6-8.7 10.3-14.4 11.1-13 1.7-26.7-11.8-26.8-12-.7-.7-1.9-.7-2.7 0-.7.7-.7 1.9 0 2.7.6.6 13.3 13.2 27.1 13.2 1 0 1.9-.1 2.9-.2 6.3-.9 11.5-4.5 15.8-10.8 4.2 6.3 9.5 9.9 15.8 10.8 1 .1 1.9.2 2.9.2 13.8 0 26.5-12.7 27.1-13.2.7-.7.7-1.9 0-2.7-.7-.7-1.9-.7-2.7 0-.1.1-13.9 13.7-26.8 12-5.7-.8-10.6-4.5-14.4-11.1V282c.1 0 .3-.1.4-.1H255c.2 0 .3.1.5.1V292.2z"/><path fill="#F6C899" d="M120.7,293.3c-0.4,0-0.9-0.2-1.3-0.5c-0.8-0.7-0.8-1.9-0.1-2.7c37.2-40.5,94.8-17.8,95.4-17.6c1,0.4,1.4,1.5,1,2.4c-0.4,1-1.5,1.4-2.5,1c-0.6-0.2-55.8-21.9-91.2,16.7C121.7,293.1,121.2,293.3,120.7,293.3"/><path fill="#F6C899" d="M132.9,305.1c-0.5,0-0.9-0.2-1.3-0.5c-0.7-0.7-0.8-1.9,0-2.7c34.8-35.9,80.2-23.8,80.6-23.7c1,0.3,1.6,1.3,1.3,2.3c-0.3,1-1.3,1.6-2.3,1.3c-0.4-0.1-43.7-11.6-76.9,22.7C133.9,304.9,133.4,305.1,132.9,305.1"/><path fill="#F6C899" d="M148.6 318.3c-.4 0-.8-.1-1.1-.3-.8-.6-1-1.8-.5-2.6 24.1-34.3 64.5-30.9 64.9-30.9 1 .1 1.8 1 1.7 2-.1 1-.9 1.8-2 1.7-.4 0-38.6-3.1-61.4 29.3C149.7 318 149.1 318.3 148.6 318.3M391.3 293.3c-.5 0-1-.2-1.4-.6-35.4-38.6-90.7-16.9-91.2-16.7-1 .4-2.1-.1-2.5-1-.4-1 .1-2.1 1-2.4.6-.2 58.2-22.9 95.4 17.6.7.8.7 2-.1 2.7C392.2 293.1 391.8 293.3 391.3 293.3"/><path fill="#F6C899" d="M379.1,305.1c-0.5,0-1-0.2-1.4-0.6c-33.3-34.3-76.5-22.8-76.9-22.7c-1,0.3-2-0.3-2.3-1.3c-0.3-1,0.3-2,1.3-2.3c0.5-0.1,45.8-12.2,80.6,23.7c0.7,0.8,0.7,1.9,0,2.7C380,304.9,379.6,305.1,379.1,305.1"/><path fill="#F6C899" d="M363.4,318.3c-0.6,0-1.2-0.3-1.5-0.8c-22.8-32.4-61.1-29.3-61.4-29.3c-1.1,0.1-2-0.7-2-1.7c-0.1-1,0.7-2,1.7-2c0.4,0,40.8-3.4,64.9,30.9c0.6,0.8,0.4,2-0.5,2.6C364.2,318.2,363.8,318.3,363.4,318.3"/></svg>